<svg width="200" height="200" viewBox="0 0 200 200" xmlns="http://www.w3.org/2000/svg">
  <defs>
    <!-- Gradient pour le terminal -->
    <linearGradient id="terminalGradient" x1="0%" y1="0%" x2="100%" y2="100%">
      <stop offset="0%" style="stop-color:#1e293b;stop-opacity:1" />
      <stop offset="100%" style="stop-color:#0f172a;stop-opacity:1" />
    </linearGradient>
    
    <!-- Gradient pour l'épée -->
    <linearGradient id="swordGradient" x1="0%" y1="0%" x2="100%" y2="100%">
      <stop offset="0%" style="stop-color:#fbbf24;stop-opacity:1" />
      <stop offset="100%" style="stop-color:#f59e0b;stop-opacity:1" />
    </linearGradient>
    
    <!-- Gradient pour le bouclier -->
    <linearGradient id="shieldGradient" x1="0%" y1="0%" x2="100%" y2="100%">
      <stop offset="0%" style="stop-color:#7c3aed;stop-opacity:1" />
      <stop offset="100%" style="stop-color:#5b21b6;stop-opacity:1" />
    </linearGradient>
    
    <!-- Glow effect -->
    <filter id="glow">
      <feGaussianBlur stdDeviation="3" result="coloredBlur"/>
      <feMerge> 
        <feMergeNode in="coloredBlur"/>
        <feMergeNode in="SourceGraphic"/>
      </feMerge>
    </filter>
  </defs>
  
  <!-- Background circle -->
  <circle cx="100" cy="100" r="95" fill="url(#terminalGradient)" stroke="#374151" stroke-width="2"/>
  
  <!-- Terminal window -->
  <rect x="30" y="40" width="140" height="100" rx="8" fill="#000000" stroke="#374151" stroke-width="2"/>
  
  <!-- Terminal header -->
  <rect x="30" y="40" width="140" height="20" rx="8" fill="#374151"/>
  <rect x="30" y="52" width="140" height="8" fill="#374151"/>
  
  <!-- Terminal dots -->
  <circle cx="42" cy="50" r="3" fill="#ef4444"/>
  <circle cx="54" cy="50" r="3" fill="#fbbf24"/>
  <circle cx="66" cy="50" r="3" fill="#22c55e"/>
  
  <!-- Terminal content - command prompt -->
  <text x="40" y="75" font-family="monospace" font-size="10" fill="#22c55e">$</text>
  <text x="50" y="75" font-family="monospace" font-size="10" fill="#ffffff">ls -la</text>
  
  <!-- Terminal content - output -->
  <text x="40" y="90" font-family="monospace" font-size="8" fill="#94a3b8">drwxr-xr-x quest/</text>
  <text x="40" y="102" font-family="monospace" font-size="8" fill="#94a3b8">-rwxr-xr-x adventure.sh</text>
  <text x="40" y="114" font-family="monospace" font-size="8" fill="#94a3b8">-rw-r--r-- skills.txt</text>
  
  <!-- Cursor blink -->
  <rect x="50" y="120" width="8" height="12" fill="#22c55e" opacity="0.8">
    <animate attributeName="opacity" values="0.8;0;0.8" dur="1s" repeatCount="indefinite"/>
  </rect>
  
  <!-- Épée (sword) - symbole de quête -->
  <g transform="translate(140, 60) rotate(45)">
    <!-- Lame -->
    <rect x="-2" y="-20" width="4" height="35" fill="url(#swordGradient)" filter="url(#glow)"/>
    <!-- Garde -->
    <rect x="-8" y="12" width="16" height="3" fill="#92400e"/>
    <!-- Poignée -->
    <rect x="-2" y="15" width="4" height="12" fill="#92400e"/>
    <!-- Pommeau -->
    <circle cx="0" cy="29" r="3" fill="#92400e"/>
  </g>
  
  <!-- Bouclier (shield) - symbole de protection/apprentissage -->
  <g transform="translate(60, 160)">
    <path d="M0,-15 L12,-10 L15,0 L12,10 L0,15 L-12,10 L-15,0 L-12,-10 Z" 
          fill="url(#shieldGradient)" 
          stroke="#4c1d95" 
          stroke-width="2" 
          filter="url(#glow)"/>
    <!-- Symbole CLI sur le bouclier -->
    <text x="0" y="2" font-family="monospace" font-size="12" fill="#ffffff" text-anchor="middle">></text>
  </g>
  
  <!-- Particules magiques -->
  <g opacity="0.7">
    <circle cx="45" cy="35" r="2" fill="#fbbf24">
      <animate attributeName="opacity" values="0;1;0" dur="2s" repeatCount="indefinite"/>
    </circle>
    <circle cx="155" cy="45" r="1.5" fill="#7c3aed">
      <animate attributeName="opacity" values="0;1;0" dur="1.5s" begin="0.5s" repeatCount="indefinite"/>
    </circle>
    <circle cx="35" cy="165" r="1" fill="#22c55e">
      <animate attributeName="opacity" values="0;1;0" dur="1.8s" begin="1s" repeatCount="indefinite"/>
    </circle>
    <circle cx="165" cy="155" r="2" fill="#f59e0b">
      <animate attributeName="opacity" values="0;1;0" dur="2.2s" begin="0.3s" repeatCount="indefinite"/>
    </circle>
  </g>
  
  <!-- Texte TerminalQuest en arc -->
  <defs>
    <path id="textcircle" d="M 100,100 m -80,0 a 80,80 0 1,1 160,0 a 80,80 0 1,1 -160,0"/>
  </defs>
  <text font-family="Arial, sans-serif" font-size="16" font-weight="bold" fill="#fbbf24">
    <textPath href="#textcircle" startOffset="25%">
      TerminalQuest
    </textPath>
  </text>
</svg> 